<svg width="36" height="36" viewBox="0 0 36 36" fill="none" xmlns="http://www.w3.org/2000/svg">
<path d="M18 19.125C20.4853 19.125 22.5 17.1103 22.5 14.625C22.5 12.1397 20.4853 10.125 18 10.125C15.5147 10.125 13.5 12.1397 13.5 14.625C13.5 17.1103 15.5147 19.125 18 19.125Z" fill="white"/>
<path d="M31.5 28.1249H19.125V25.8186C21.9967 25.53 24.6477 24.1487 26.5296 21.9605C28.4115 19.7722 29.3804 16.9444 29.2359 14.0618C29.0914 11.1792 27.8446 8.46245 25.7533 6.47336C23.662 4.48426 20.8862 3.375 18 3.375C15.1138 3.375 12.338 4.48426 10.2467 6.47336C8.15543 8.46245 6.9086 11.1792 6.76411 14.0618C6.61962 16.9444 7.58852 19.7722 9.47043 21.9605C11.3523 24.1487 14.0033 25.53 16.875 25.8186V28.1249H4.5C4.20163 28.1249 3.91548 28.2434 3.7045 28.4544C3.49353 28.6653 3.375 28.9515 3.375 29.2499C3.375 29.5482 3.49353 29.8344 3.7045 30.0454C3.91548 30.2563 4.20163 30.3749 4.5 30.3749H31.5C31.7984 30.3749 32.0845 30.2563 32.2955 30.0454C32.5065 29.8344 32.625 29.5482 32.625 29.2499C32.625 28.9515 32.5065 28.6653 32.2955 28.4544C32.0845 28.2434 31.7984 28.1249 31.5 28.1249ZM11.25 14.6249C11.25 13.2898 11.6459 11.9848 12.3876 10.8748C13.1293 9.76473 14.1835 8.89956 15.4169 8.38867C16.6503 7.87778 18.0075 7.74411 19.3169 8.00456C20.6262 8.26501 21.829 8.90788 22.773 9.85189C23.717 10.7959 24.3599 11.9986 24.6203 13.308C24.8808 14.6174 24.7471 15.9746 24.2362 17.208C23.7253 18.4414 22.8601 19.4956 21.7501 20.2373C20.6401 20.979 19.335 21.3749 18 21.3749C16.2098 21.3749 14.4929 20.6637 13.227 19.3978C11.9612 18.132 11.25 16.4151 11.25 14.6249Z" fill="white"/>
</svg>
