<svg width="36" height="36" viewBox="0 0 36 36" xmlns="http://www.w3.org/2000/svg">
<path d="M35.428 21.1367C35.428 21.1367 33.069 23.4398 32.8284 23.6762C32.5835 23.9125 31.7757 23.8824 31.7757 23.8824C31.7757 23.8824 29.6272 23.6461 29.3136 23.3496C29.0042 23.0488 28.7937 20.866 28.7937 20.866C28.7937 20.866 28.7335 20.2559 29.0429 19.9551C29.3522 19.6586 31.6511 17.4242 31.6511 17.4242C31.6511 17.4242 31.9476 17.102 31.5179 17.102C30.1343 17.0977 27.3327 17.1277 25.9749 18.4469L25.6956 18.7176C24.0929 20.2859 23.994 22.6449 25.2831 24.3336L17.3339 31.3117C16.7022 31.9262 15.8729 33.5977 17.3339 35.0199C18.7948 36.4422 20.5136 35.6344 21.1452 35.0199C21.1452 35.0199 26.3444 29.4941 26.787 29.0129C27.2339 28.5316 26.9976 28.0203 26.9976 28.0203C26.9976 28.0203 26.0823 26.7785 25.5882 26.0395C25.3218 25.6312 25.4507 25.5797 25.8288 25.8203C26.8815 26.4734 28.1061 27.2211 28.3167 27.3199L28.3296 27.307C30.0655 28.5746 32.489 28.4801 34.1046 26.9117L34.3839 26.641C35.703 25.3648 35.7417 22.6578 35.746 21.3C35.7546 20.8574 35.428 21.1367 35.428 21.1367ZM19.4522 34.225C18.7175 34.225 18.1159 33.6449 18.1159 32.9273C18.1159 32.2098 18.7132 31.6297 19.4522 31.6297C20.187 31.6297 20.7886 32.2098 20.7886 32.9273C20.7886 33.6449 20.1913 34.225 19.4522 34.225ZM15.0952 19.7961C17.3468 19.7961 19.4737 19.5727 21.3858 19.1859C22.6019 15.9375 25.7987 13.6086 29.5542 13.6086C29.6874 13.6086 29.8206 13.6215 29.9538 13.6301C29.9624 13.5398 29.9839 13.4496 29.9839 13.3594V8.43516C29.9839 11.9887 23.3194 14.8719 15.0952 14.8719C6.871 14.8719 0.206543 11.993 0.206543 8.43516V13.3594C0.21084 16.9129 6.87529 19.7961 15.0952 19.7961ZM15.0952 13.1059C23.3194 13.1059 29.9839 10.227 29.9839 6.66914C29.9839 3.11133 23.3194 0.232422 15.0952 0.232422C6.871 0.232422 0.206543 3.11133 0.206543 6.66914C0.21084 10.227 6.87529 13.1059 15.0952 13.1059ZM15.0952 26.482C15.9245 26.482 16.728 26.4477 17.5144 26.3918L20.9003 23.1047C20.9089 23.0961 20.9175 23.0875 20.9261 23.0832C20.8831 22.7395 20.8616 22.4 20.8616 22.0563C20.8616 21.7168 20.8917 21.3816 20.9304 21.0508C19.1386 21.3816 17.1663 21.5664 15.0995 21.5664C6.871 21.5664 0.206543 18.6832 0.206543 15.1297V20.0539C0.21084 23.5988 6.87529 26.482 15.0952 26.482ZM0.21084 21.8113V26.7313C0.21084 30.1172 6.24795 32.8844 13.9136 33.1422C13.7245 31.5309 14.0124 29.7949 14.8503 28.9785L15.6151 28.2352C15.439 28.2395 15.2714 28.248 15.0952 28.248C6.87529 28.248 0.21084 25.3691 0.21084 21.8113Z"/>
</svg>
