<svg width="44" height="44" viewBox="0 0 44 44" xmlns="http://www.w3.org/2000/svg">
<path d="M24.4892 25.5263H19.7681V34.9636H15.047V11.3735H24.483C29.1442 11.3735 31.4118 14.6113 31.4118 18.4498C31.4118 22.2885 29.6241 25.5263 24.957 25.5263H24.4892ZM21.9996 0.380371C10.0618 0.380371 0.379883 10.0579 0.379883 22.0002C0.379883 33.9423 10.0618 43.6198 21.9996 43.6198C33.9432 43.6198 43.6193 33.9364 43.6193 22.0002C43.6252 10.0579 33.9432 0.380371 21.9996 0.380371ZM24.4892 16.089H19.7681V20.8107H24.4892C26.4808 20.8107 26.8466 20.2881 26.8466 18.4498C26.8466 16.6117 26.9606 16.089 24.9631 16.089H24.4892Z"/>
</svg>
