<svg width="37" height="44" viewBox="0 0 37 44" xmlns="http://www.w3.org/2000/svg">
<path d="M4.61513 24.2858C5.04482 24.2858 5.04482 23.9979 5.04482 23.564V15.2022C5.04482 14.9144 4.90302 14.6265 4.61513 14.6265C2.03271 14.6265 0.0260675 16.646 0.0260675 19.5292C-0.120026 22.2663 2.03271 24.2858 4.61513 24.2858ZM31.1483 24.2858C33.8726 24.2858 36.0253 22.1245 36.0253 19.3831C36.0253 16.646 33.7308 14.6265 31.0065 14.6265C30.7186 14.6265 30.1472 14.6265 30.1472 15.0604V23.8519C30.289 24.2858 30.7186 24.2858 31.1483 24.2858ZM10.3515 8.57217H24.6944C24.9823 8.57217 25.2702 8.28428 25.2702 7.7085C24.8405 3.81553 21.5405 0.790527 17.5229 0.790527C13.3636 0.790527 10.0636 3.96162 9.77568 7.99639C9.77568 8.28428 10.0636 8.57217 10.3515 8.57217ZM33.3011 37.8339H25.6999V26.0132H28.4241C28.712 26.0132 28.8538 25.8671 28.8538 25.5792V13.6167C28.8538 13.3288 28.712 13.1827 28.4241 13.1827H25.6999V10.4456C25.6999 10.1577 25.5581 10.0116 25.2702 10.0116H10.0636C9.77568 9.86553 9.63388 10.1577 9.63388 10.4456V13.1827H6.90966C6.62177 13.0366 6.33388 13.3288 6.33388 13.6167V25.7253C6.33388 26.0132 6.47568 26.1593 6.76357 26.1593H9.49208V37.8339H3.60966C2.17451 37.8339 1.02724 38.9855 1.02724 40.4292C1.02724 41.8687 2.17451 43.1663 3.60966 43.1663H33.3011C34.7362 43.1663 35.8835 42.0147 35.8835 40.571C35.8835 39.1315 34.7319 37.8339 33.3011 37.8339ZM17.3811 23.13C15.2284 23.13 13.5097 21.3983 13.5097 19.237C13.5097 17.0757 15.2327 15.344 17.3811 15.344C19.5339 15.344 21.2526 17.0757 21.2526 19.237C21.2526 21.3983 19.5296 23.13 17.3811 23.13Z"/>
</svg>
