<svg width="35" height="35" viewBox="0 0 35 35" xmlns="http://www.w3.org/2000/svg">
<path d="M32.6061 13.8232L18.8561 1.32793C18.3492 0.864146 17.687 0.606934 16.9999 0.606934C16.3128 0.606934 15.6506 0.864146 15.1436 1.32793L1.39363 13.8232C1.11211 14.0808 0.887259 14.3941 0.733391 14.7433C0.579523 15.0924 0.5 15.4698 0.499878 15.8514V31.6811C0.488699 32.3744 0.733467 33.0475 1.18738 33.5717C1.445 33.8646 1.76235 34.099 2.11811 34.2591C2.47386 34.4192 2.85977 34.5013 3.24988 34.4998H11.4999C11.8646 34.4998 12.2143 34.3549 12.4722 34.0971C12.73 33.8392 12.8749 33.4895 12.8749 33.1248V24.8748C12.8749 24.5101 13.0197 24.1604 13.2776 23.9025C13.5355 23.6447 13.8852 23.4998 14.2499 23.4998H19.7499C20.1146 23.4998 20.4643 23.6447 20.7222 23.9025C20.98 24.1604 21.1249 24.5101 21.1249 24.8748V33.1248C21.1249 33.4895 21.2697 33.8392 21.5276 34.0971C21.7855 34.3549 22.1352 34.4998 22.4999 34.4998H30.7499C31.206 34.5038 31.6556 34.3914 32.0561 34.1732C32.492 33.9359 32.856 33.5857 33.11 33.1593C33.364 32.7329 33.4987 32.2461 33.4999 31.7498V15.8514C33.4998 15.4698 33.4202 15.0924 33.2664 14.7433C33.1125 14.3941 32.8877 14.0808 32.6061 13.8232Z"/>
</svg>
