<svg width="44" height="44" viewBox="0 0 44 44" xmlns="http://www.w3.org/2000/svg">
<path d="M35.75 6.875H8.25C7.52065 6.875 6.82118 7.16473 6.30546 7.68046C5.78973 8.19618 5.5 8.89565 5.5 9.625V17.875C5.5 18.6043 5.78973 19.3038 6.30546 19.8195C6.82118 20.3353 7.52065 20.625 8.25 20.625H35.75C36.4793 20.625 37.1788 20.3353 37.6945 19.8195C38.2103 19.3038 38.5 18.6043 38.5 17.875V9.625C38.5 8.89565 38.2103 8.19618 37.6945 7.68046C37.1788 7.16473 36.4793 6.875 35.75 6.875V6.875ZM30.9375 15.8125C30.5296 15.8125 30.1308 15.6915 29.7916 15.4649C29.4525 15.2383 29.1881 14.9162 29.032 14.5393C28.8759 14.1624 28.835 13.7477 28.9146 13.3476C28.9942 12.9475 29.1906 12.58 29.4791 12.2916C29.7675 12.0031 30.135 11.8067 30.5351 11.7271C30.9352 11.6475 31.3499 11.6884 31.7268 11.8445C32.1037 12.0006 32.4258 12.265 32.6524 12.6041C32.879 12.9433 33 13.3421 33 13.75C33 14.297 32.7827 14.8216 32.3959 15.2084C32.0091 15.5952 31.4845 15.8125 30.9375 15.8125Z"/>
<path d="M35.75 23.375H8.25C7.52065 23.375 6.82118 23.6647 6.30546 24.1805C5.78973 24.6962 5.5 25.3957 5.5 26.125V34.375C5.5 35.1043 5.78973 35.8038 6.30546 36.3195C6.82118 36.8353 7.52065 37.125 8.25 37.125H35.75C36.4793 37.125 37.1788 36.8353 37.6945 36.3195C38.2103 35.8038 38.5 35.1043 38.5 34.375V26.125C38.5 25.3957 38.2103 24.6962 37.6945 24.1805C37.1788 23.6647 36.4793 23.375 35.75 23.375ZM30.9375 32.3125C30.5296 32.3125 30.1308 32.1915 29.7916 31.9649C29.4525 31.7383 29.1881 31.4162 29.032 31.0393C28.8759 30.6624 28.835 30.2477 28.9146 29.8476C28.9942 29.4475 29.1906 29.08 29.4791 28.7916C29.7675 28.5031 30.135 28.3067 30.5351 28.2271C30.9352 28.1475 31.3499 28.1884 31.7268 28.3445C32.1037 28.5006 32.4258 28.765 32.6524 29.1041C32.879 29.4433 33 29.8421 33 30.25C33 30.797 32.7827 31.3216 32.3959 31.7084C32.0091 32.0952 31.4845 32.3125 30.9375 32.3125Z"/>
</svg>
