<svg width="36" height="32" viewBox="0 0 36 32" xmlns="http://www.w3.org/2000/svg">
<path d="M31.75 11.875C32.4793 11.875 33.1788 12.1647 33.6945 12.6805C34.2103 13.1962 34.5 13.8957 34.5 14.625V25.625C34.8647 25.625 35.2144 25.7699 35.4723 26.0277C35.7301 26.2856 35.875 26.6353 35.875 27V29.75C35.875 30.1147 35.7301 30.4644 35.4723 30.7223C35.2144 30.9801 34.8647 31.125 34.5 31.125H26.25C25.8853 31.125 25.5356 30.9801 25.2777 30.7223C25.0199 30.4644 24.875 30.1147 24.875 29.75V27C24.875 26.6632 24.9987 26.3382 25.2225 26.0865C25.4463 25.8348 25.7547 25.674 26.0891 25.6346L26.25 25.625V20.125H22.125V11.875H31.75ZM18 9.125C18.3647 9.125 18.7144 9.26987 18.9723 9.52773C19.2301 9.78559 19.375 10.1353 19.375 10.5V21.5C19.375 21.8647 19.2301 22.2144 18.9723 22.4723C18.7144 22.7301 18.3647 22.875 18 22.875C17.6353 22.875 17.2856 22.7301 17.0277 22.4723C16.7699 22.2144 16.625 21.8647 16.625 21.5V10.5C16.625 10.1353 16.7699 9.78559 17.0277 9.52773C17.2856 9.26987 17.6353 9.125 18 9.125ZM9.75 0.875C10.1147 0.875 10.4644 1.01987 10.7223 1.27773C10.9801 1.53559 11.125 1.88533 11.125 2.25V5C11.125 5.33678 11.0013 5.66184 10.7775 5.91351C10.5537 6.16518 10.2453 6.32597 9.91087 6.36538L9.75 6.375V11.875H13.875V20.125H4.25C3.52065 20.125 2.82118 19.8353 2.30546 19.3195C1.78973 18.8038 1.5 18.1043 1.5 17.375V6.375C1.13533 6.375 0.785591 6.23013 0.527728 5.97227C0.269866 5.71441 0.125 5.36467 0.125 5V2.25C0.125 1.88533 0.269866 1.53559 0.527728 1.27773C0.785591 1.01987 1.13533 0.875 1.5 0.875H9.75Z"/>
</svg>
