<svg width="34" height="36" viewBox="0 0 34 36" xmlns="http://www.w3.org/2000/svg">
<path d="M30.75 0.875H3.25C2.52065 0.875 1.82118 1.16473 1.30546 1.68046C0.789731 2.19618 0.5 2.89565 0.5 3.625V13.7141C0.5 29.0797 13.5281 34.1844 16.1406 35.0438C16.6988 35.2274 17.3012 35.2274 17.8594 35.0438C20.4719 34.1844 33.5 29.0797 33.5 13.7141V3.625C33.5 2.89565 33.2103 2.19618 32.6945 1.68046C32.1788 1.16473 31.4793 0.875 30.75 0.875ZM17 32.4313C14.8172 31.7094 4.57344 27.6875 3.37031 16H17V3.625H30.75V13.7141C30.7541 14.4777 30.714 15.241 30.6297 16H17V32.4313Z"/>
</svg>
