<svg width="38" height="35" viewBox="0 0 38 35" xmlns="http://www.w3.org/2000/svg">
<path d="M36.8579 32.4375C34.2923 28.0178 30.1856 24.7006 25.3251 23.1218C27.6548 21.7365 29.4653 19.6245 30.4783 17.1104C31.4914 14.5963 31.6509 11.8192 30.9326 9.20556C30.2142 6.59197 28.6576 4.28653 26.5019 2.6434C24.3462 1.00027 21.7106 0.110352 19.0001 0.110352C16.2896 0.110352 13.654 1.00027 11.4983 2.6434C9.34263 4.28653 7.78602 6.59197 7.06764 9.20556C6.34926 11.8192 6.50885 14.5963 7.52189 17.1104C8.53492 19.6245 10.3454 21.7365 12.6751 23.1218C7.81464 24.7006 3.70793 28.0178 1.14229 32.4375C1.01633 32.6447 0.949707 32.8825 0.949707 33.125C0.949707 33.3675 1.01633 33.6053 1.14229 33.8125C1.25981 34.0232 1.43202 34.1983 1.64074 34.3193C1.84947 34.4403 2.08698 34.5027 2.32823 34.5H35.672C35.9132 34.5027 36.1507 34.4403 36.3595 34.3193C36.5682 34.1983 36.7404 34.0232 36.8579 33.8125C36.9839 33.6053 37.0505 33.3675 37.0505 33.125C37.0505 32.8825 36.9839 32.6447 36.8579 32.4375Z"/>
</svg>
