<svg width="36" height="42" viewBox="0 0 36 42" xmlns="http://www.w3.org/2000/svg">
<path d="M35.7373 32.6017C35.6244 32.8337 35.4485 33.0293 35.2296 33.1661C35.0108 33.3029 34.7579 33.3753 34.4998 33.3751H19.3748V40.2501C19.3748 40.6148 19.23 40.9645 18.9721 41.2224C18.7142 41.4803 18.3645 41.6251 17.9998 41.6251C17.6352 41.6251 17.2854 41.4803 17.0276 41.2224C16.7697 40.9645 16.6248 40.6148 16.6248 40.2501V33.3751H1.49983C1.24298 33.3744 0.991489 33.3017 0.77384 33.1653C0.55619 33.0289 0.381089 32.8343 0.268377 32.6035C0.155664 32.3727 0.109848 32.115 0.136118 31.8595C0.162389 31.604 0.259696 31.361 0.417015 31.1579L8.30608 21.0001H4.24983C3.99298 20.9994 3.74149 20.9267 3.52384 20.7903C3.30619 20.6539 3.13109 20.4593 3.01838 20.2285C2.90566 19.9977 2.85985 19.74 2.88612 19.4845C2.91239 19.229 3.0097 18.986 3.16701 18.7829L16.917 0.907938C17.0456 0.743596 17.21 0.610685 17.3976 0.519279C17.5852 0.427874 17.7911 0.380371 17.9998 0.380371C18.2085 0.380371 18.4145 0.427874 18.6021 0.519279C18.7897 0.610685 18.954 0.743596 19.0826 0.907938L32.8326 18.7829C32.99 18.986 33.0873 19.229 33.1135 19.4845C33.1398 19.74 33.094 19.9977 32.9813 20.2285C32.8686 20.4593 32.6935 20.6539 32.4758 20.7903C32.2582 20.9267 32.0067 20.9994 31.7498 21.0001H27.6936L35.5826 31.1579C35.7406 31.3602 35.8388 31.6026 35.8661 31.8577C35.8934 32.1129 35.8488 32.3706 35.7373 32.6017Z"/>
</svg>
