<svg width="36" height="36" viewBox="0 0 36 36" fill="none" xmlns="http://www.w3.org/2000/svg">
<path d="M18 26.4238C17.6361 26.6582 17.2606 26.8741 16.875 27.0707V32.6254C16.875 32.9238 16.9935 33.2099 17.2045 33.4209C17.4155 33.6319 17.7016 33.7504 18 33.7504C18.2984 33.7504 18.5845 33.6319 18.7955 33.4209C19.0065 33.2099 19.125 32.9238 19.125 32.6254V27.0707C18.7394 26.8741 18.3639 26.6582 18 26.4238Z" fill="white"/>
<path d="M27.8578 8.80294C27.044 6.85984 25.6741 5.2006 23.9202 4.03366C22.1663 2.86672 20.1067 2.24414 18 2.24414C15.8934 2.24414 13.8337 2.86672 12.0798 4.03366C10.326 5.2006 8.95604 6.85984 8.14222 8.80294C6.39114 9.6144 4.90719 10.9075 3.86379 12.5311C2.8204 14.1547 2.26068 16.0418 2.25003 17.9717C2.23597 23.4279 6.66566 27.9842 12.1078 28.1248C13.7592 28.168 15.396 27.8058 16.875 27.0701V22.0639L10.7438 19.0123C10.4753 18.878 10.2711 18.6426 10.1761 18.3578C10.1291 18.2168 10.1103 18.0678 10.1209 17.9196C10.1314 17.7713 10.1711 17.6265 10.2375 17.4936C10.304 17.3606 10.396 17.242 10.5083 17.1446C10.6206 17.0472 10.751 16.9729 10.8921 16.9259C11.1769 16.831 11.4878 16.853 11.7563 16.9873L16.875 19.5608V12.3748C16.875 12.0764 16.9936 11.7903 17.2045 11.5793C17.4155 11.3683 17.7017 11.2498 18 11.2498C18.2984 11.2498 18.5846 11.3683 18.7955 11.5793C19.0065 11.7903 19.125 12.0764 19.125 12.3748V16.1858L24.2438 13.6123C24.5123 13.478 24.8232 13.456 25.108 13.5509C25.3928 13.6458 25.6283 13.85 25.7625 14.1186C25.8968 14.3871 25.9189 14.698 25.824 14.9828C25.729 15.2676 25.5248 15.503 25.2563 15.6373L19.125 18.6889V27.0701C20.5237 27.7639 22.0638 28.1249 23.625 28.1248H23.8922C29.3344 27.9842 33.7641 23.4279 33.75 17.9717C33.7394 16.0418 33.1797 14.1547 32.1363 12.5311C31.0929 10.9075 29.6089 9.6144 27.8578 8.80294Z" fill="white"/>
</svg>
